<svg class="plot-d6a7b5" fill="currentColor" font-family="system-ui, sans-serif" font-size="10" text-anchor="middle" width="640" height="1260" viewBox="0 0 640 1260" xmlns="http://www.w3.org/2000/svg" xmlns:xlink="http://www.w3.org/1999/xlink"><style>:where(.plot-d6a7b5) {
  --plot-background: white;
  display: block;
  height: auto;
  height: intrinsic;
  max-width: 100%;
}
:where(.plot-d6a7b5 text),
:where(.plot-d6a7b5 tspan) {
  white-space: pre;
}</style><g aria-label="y-grid" stroke="currentColor" stroke-opacity="0.1"><line x1="40" x2="620" y1="28.190476190476147" y2="28.190476190476147"/><line x1="40" x2="620" y1="42.57142857142853" y2="42.57142857142853"/><line x1="40" x2="620" y1="56.952380952380906" y2="56.952380952380906"/><line x1="40" x2="620" y1="71.33333333333329" y2="71.33333333333329"/><line x1="40" x2="620" y1="85.71428571428567" y2="85.71428571428567"/><line x1="40" x2="620" y1="100.09523809523806" y2="100.09523809523806"/><line x1="40" x2="620" y1="114.47619047619044" y2="114.47619047619044"/><line x1="40" x2="620" y1="128.85714285714283" y2="128.85714285714283"/><line x1="40" x2="620" y1="143.23809523809518" y2="143.23809523809518"/><line x1="40" x2="620" y1="157.6190476190476" y2="157.6190476190476"/><line x1="40" x2="620" y1="171.99999999999997" y2="171.99999999999997"/><line x1="40" x2="620" y1="186.38095238095235" y2="186.38095238095235"/><line x1="40" x2="620" y1="200.76190476190473" y2="200.76190476190473"/><line x1="40" x2="620" y1="215.1428571428571" y2="215.1428571428571"/><line x1="40" x2="620" y1="229.5238095238095" y2="229.5238095238095"/><line x1="40" x2="620" y1="243.90476190476187" y2="243.90476190476187"/><line x1="40" x2="620" y1="258.2857142857142" y2="258.2857142857142"/><line x1="40" x2="620" y1="272.66666666666663" y2="272.66666666666663"/><line x1="40" x2="620" y1="287.04761904761904" y2="287.04761904761904"/><line x1="40" x2="620" y1="301.4285714285714" y2="301.4285714285714"/><line x1="40" x2="620" y1="315.8095238095238" y2="315.8095238095238"/><line x1="40" x2="620" y1="330.19047619047615" y2="330.19047619047615"/><line x1="40" x2="620" y1="344.57142857142856" y2="344.57142857142856"/><line x1="40" x2="620" y1="358.9523809523809" y2="358.9523809523809"/><line x1="40" x2="620" y1="373.3333333333333" y2="373.3333333333333"/><line x1="40" x2="620" y1="387.71428571428567" y2="387.71428571428567"/><line x1="40" x2="620" y1="402.0952380952381" y2="402.0952380952381"/><line x1="40" x2="620" y1="416.4761904761904" y2="416.4761904761904"/><line x1="40" x2="620" y1="430.85714285714283" y2="430.85714285714283"/><line x1="40" x2="620" y1="445.2380952380952" y2="445.2380952380952"/><line x1="40" x2="620" y1="459.6190476190476" y2="459.6190476190476"/><line x1="40" x2="620" y1="473.99999999999994" y2="473.99999999999994"/><line x1="40" x2="620" y1="488.38095238095235" y2="488.38095238095235"/><line x1="40" x2="620" y1="502.76190476190476" y2="502.76190476190476"/><line x1="40" x2="620" y1="517.1428571428571" y2="517.1428571428571"/><line x1="40" x2="620" y1="531.5238095238095" y2="531.5238095238095"/><line x1="40" x2="620" y1="545.9047619047619" y2="545.9047619047619"/><line x1="40" x2="620" y1="560.2857142857142" y2="560.2857142857142"/><line x1="40" x2="620" y1="574.6666666666666" y2="574.6666666666666"/><line x1="40" x2="620" y1="589.047619047619" y2="589.047619047619"/><line x1="40" x2="620" y1="603.4285714285714" y2="603.4285714285714"/><line x1="40" x2="620" y1="617.8095238095237" y2="617.8095238095237"/><line x1="40" x2="620" y1="632.1904761904761" y2="632.1904761904761"/><line x1="40" x2="620" y1="646.5714285714286" y2="646.5714285714286"/><line x1="40" x2="620" y1="660.952380952381" y2="660.952380952381"/><line x1="40" x2="620" y1="675.3333333333333" y2="675.3333333333333"/><line x1="40" x2="620" y1="689.7142857142857" y2="689.7142857142857"/><line x1="40" x2="620" y1="704.0952380952381" y2="704.0952380952381"/><line x1="40" x2="620" y1="718.4761904761905" y2="718.4761904761905"/><line x1="40" x2="620" y1="732.8571428571429" y2="732.8571428571429"/><line x1="40" x2="620" y1="747.2380952380952" y2="747.2380952380952"/><line x1="40" x2="620" y1="761.6190476190476" y2="761.6190476190476"/><line x1="40" x2="620" y1="776" y2="776"/><line x1="40" x2="620" y1="790.3809523809524" y2="790.3809523809524"/><line x1="40" x2="620" y1="804.7619047619047" y2="804.7619047619047"/><line x1="40" x2="620" y1="819.1428571428571" y2="819.1428571428571"/><line x1="40" x2="620" y1="833.5238095238095" y2="833.5238095238095"/><line x1="40" x2="620" y1="847.9047619047619" y2="847.9047619047619"/><line x1="40" x2="620" y1="862.2857142857142" y2="862.2857142857142"/><line x1="40" x2="620" y1="876.6666666666666" y2="876.6666666666666"/><line x1="40" x2="620" y1="891.047619047619" y2="891.047619047619"/><line x1="40" x2="620" y1="905.4285714285714" y2="905.4285714285714"/><line x1="40" x2="620" y1="919.8095238095237" y2="919.8095238095237"/><line x1="40" x2="620" y1="934.1904761904761" y2="934.1904761904761"/><line x1="40" x2="620" y1="948.5714285714286" y2="948.5714285714286"/><line x1="40" x2="620" y1="962.952380952381" y2="962.952380952381"/><line x1="40" x2="620" y1="977.3333333333334" y2="977.3333333333334"/><line x1="40" x2="620" y1="991.7142857142857" y2="991.7142857142857"/><line x1="40" x2="620" y1="1006.0952380952381" y2="1006.0952380952381"/><line x1="40" x2="620" y1="1020.4761904761905" y2="1020.4761904761905"/><line x1="40" x2="620" y1="1034.857142857143" y2="1034.857142857143"/><line x1="40" x2="620" y1="1049.2380952380952" y2="1049.2380952380952"/><line x1="40" x2="620" y1="1063.6190476190477" y2="1063.6190476190477"/><line x1="40" x2="620" y1="1078" y2="1078"/><line x1="40" x2="620" y1="1092.3809523809523" y2="1092.3809523809523"/><line x1="40" x2="620" y1="1106.7619047619048" y2="1106.7619047619048"/><line x1="40" x2="620" y1="1121.142857142857" y2="1121.142857142857"/><line x1="40" x2="620" y1="1135.5238095238094" y2="1135.5238095238094"/><line x1="40" x2="620" y1="1149.904761904762" y2="1149.904761904762"/><line x1="40" x2="620" y1="1164.2857142857142" y2="1164.2857142857142"/><line x1="40" x2="620" y1="1178.6666666666667" y2="1178.6666666666667"/><line x1="40" x2="620" y1="1193.047619047619" y2="1193.047619047619"/><line x1="40" x2="620" y1="1207.4285714285713" y2="1207.4285714285713"/><line x1="40" x2="620" y1="1221.8095238095239" y2="1221.8095238095239"/></g><g aria-label="y-axis tick" fill="none" stroke="currentColor"><path transform="translate(40,28.190476190476147)" d="M0,0L-6,0"/><path transform="translate(40,42.57142857142853)" d="M0,0L-6,0"/><path transform="translate(40,56.952380952380906)" d="M0,0L-6,0"/><path transform="translate(40,71.33333333333329)" d="M0,0L-6,0"/><path transform="translate(40,85.71428571428567)" d="M0,0L-6,0"/><path transform="translate(40,100.09523809523806)" d="M0,0L-6,0"/><path transform="translate(40,114.47619047619044)" d="M0,0L-6,0"/><path transform="translate(40,128.85714285714283)" d="M0,0L-6,0"/><path transform="translate(40,143.23809523809518)" d="M0,0L-6,0"/><path transform="translate(40,157.6190476190476)" d="M0,0L-6,0"/><path transform="translate(40,171.99999999999997)" d="M0,0L-6,0"/><path transform="translate(40,186.38095238095235)" d="M0,0L-6,0"/><path transform="translate(40,200.76190476190473)" d="M0,0L-6,0"/><path transform="translate(40,215.1428571428571)" d="M0,0L-6,0"/><path transform="translate(40,229.5238095238095)" d="M0,0L-6,0"/><path transform="translate(40,243.90476190476187)" d="M0,0L-6,0"/><path transform="translate(40,258.2857142857142)" d="M0,0L-6,0"/><path transform="translate(40,272.66666666666663)" d="M0,0L-6,0"/><path transform="translate(40,287.04761904761904)" d="M0,0L-6,0"/><path transform="translate(40,301.4285714285714)" d="M0,0L-6,0"/><path transform="translate(40,315.8095238095238)" d="M0,0L-6,0"/><path transform="translate(40,330.19047619047615)" d="M0,0L-6,0"/><path transform="translate(40,344.57142857142856)" d="M0,0L-6,0"/><path transform="translate(40,358.9523809523809)" d="M0,0L-6,0"/><path transform="translate(40,373.3333333333333)" d="M0,0L-6,0"/><path transform="translate(40,387.71428571428567)" d="M0,0L-6,0"/><path transform="translate(40,402.0952380952381)" d="M0,0L-6,0"/><path transform="translate(40,416.4761904761904)" d="M0,0L-6,0"/><path transform="translate(40,430.85714285714283)" d="M0,0L-6,0"/><path transform="translate(40,445.2380952380952)" d="M0,0L-6,0"/><path transform="translate(40,459.6190476190476)" d="M0,0L-6,0"/><path transform="translate(40,473.99999999999994)" d="M0,0L-6,0"/><path transform="translate(40,488.38095238095235)" d="M0,0L-6,0"/><path transform="translate(40,502.76190476190476)" d="M0,0L-6,0"/><path transform="translate(40,517.1428571428571)" d="M0,0L-6,0"/><path transform="translate(40,531.5238095238095)" d="M0,0L-6,0"/><path transform="translate(40,545.9047619047619)" d="M0,0L-6,0"/><path transform="translate(40,560.2857142857142)" d="M0,0L-6,0"/><path transform="translate(40,574.6666666666666)" d="M0,0L-6,0"/><path transform="translate(40,589.047619047619)" d="M0,0L-6,0"/><path transform="translate(40,603.4285714285714)" d="M0,0L-6,0"/><path transform="translate(40,617.8095238095237)" d="M0,0L-6,0"/><path transform="translate(40,632.1904761904761)" d="M0,0L-6,0"/><path transform="translate(40,646.5714285714286)" d="M0,0L-6,0"/><path transform="translate(40,660.952380952381)" d="M0,0L-6,0"/><path transform="translate(40,675.3333333333333)" d="M0,0L-6,0"/><path transform="translate(40,689.7142857142857)" d="M0,0L-6,0"/><path transform="translate(40,704.0952380952381)" d="M0,0L-6,0"/><path transform="translate(40,718.4761904761905)" d="M0,0L-6,0"/><path transform="translate(40,732.8571428571429)" d="M0,0L-6,0"/><path transform="translate(40,747.2380952380952)" d="M0,0L-6,0"/><path transform="translate(40,761.6190476190476)" d="M0,0L-6,0"/><path transform="translate(40,776)" d="M0,0L-6,0"/><path transform="translate(40,790.3809523809524)" d="M0,0L-6,0"/><path transform="translate(40,804.7619047619047)" d="M0,0L-6,0"/><path transform="translate(40,819.1428571428571)" d="M0,0L-6,0"/><path transform="translate(40,833.5238095238095)" d="M0,0L-6,0"/><path transform="translate(40,847.9047619047619)" d="M0,0L-6,0"/><path transform="translate(40,862.2857142857142)" d="M0,0L-6,0"/><path transform="translate(40,876.6666666666666)" d="M0,0L-6,0"/><path transform="translate(40,891.047619047619)" d="M0,0L-6,0"/><path transform="translate(40,905.4285714285714)" d="M0,0L-6,0"/><path transform="translate(40,919.8095238095237)" d="M0,0L-6,0"/><path transform="translate(40,934.1904761904761)" d="M0,0L-6,0"/><path transform="translate(40,948.5714285714286)" d="M0,0L-6,0"/><path transform="translate(40,962.952380952381)" d="M0,0L-6,0"/><path transform="translate(40,977.3333333333334)" d="M0,0L-6,0"/><path transform="translate(40,991.7142857142857)" d="M0,0L-6,0"/><path transform="translate(40,1006.0952380952381)" d="M0,0L-6,0"/><path transform="translate(40,1020.4761904761905)" d="M0,0L-6,0"/><path transform="translate(40,1034.857142857143)" d="M0,0L-6,0"/><path transform="translate(40,1049.2380952380952)" d="M0,0L-6,0"/><path transform="translate(40,1063.6190476190477)" d="M0,0L-6,0"/><path transform="translate(40,1078)" d="M0,0L-6,0"/><path transform="translate(40,1092.3809523809523)" d="M0,0L-6,0"/><path transform="translate(40,1106.7619047619048)" d="M0,0L-6,0"/><path transform="translate(40,1121.142857142857)" d="M0,0L-6,0"/><path transform="translate(40,1135.5238095238094)" d="M0,0L-6,0"/><path transform="translate(40,1149.904761904762)" d="M0,0L-6,0"/><path transform="translate(40,1164.2857142857142)" d="M0,0L-6,0"/><path transform="translate(40,1178.6666666666667)" d="M0,0L-6,0"/><path transform="translate(40,1193.047619047619)" d="M0,0L-6,0"/><path transform="translate(40,1207.4285714285713)" d="M0,0L-6,0"/><path transform="translate(40,1221.8095238095239)" d="M0,0L-6,0"/></g><g aria-label="y-axis tick label" text-anchor="end" transform="translate(-9,0)"><text y="0.32em" transform="translate(40,28.190476190476147)">0</text><text y="0.32em" transform="translate(40,42.57142857142853)">1,000,000</text><text y="0.32em" transform="translate(40,56.952380952380906)">1,082,500</text><text y="0.32em" transform="translate(40,71.33333333333329)">1,151,976</text><text y="0.32em" transform="translate(40,85.71428571428567)">1,248,000</text><text y="0.32em" transform="translate(40,100.09523809523806)">1,360,000</text><text y="0.32em" transform="translate(40,114.47619047619044)">1,470,000</text><text y="0.32em" transform="translate(40,128.85714285714283)">1,609,000</text><text y="0.32em" transform="translate(40,143.23809523809518)">1,750,000</text><text y="0.32em" transform="translate(40,157.6190476190476)">101,000,000</text><text y="0.32em" transform="translate(40,171.99999999999997)">103,400,000</text><text y="0.32em" transform="translate(40,186.38095238095235)">103,500,000</text><text y="0.32em" transform="translate(40,200.76190476190473)">104,300,000</text><text y="0.32em" transform="translate(40,215.1428571428571)">107,200,000</text><text y="0.32em" transform="translate(40,229.5238095238095)">107,300,000</text><text y="0.32em" transform="translate(40,243.90476190476187)">109,500,000</text><text y="0.32em" transform="translate(40,258.2857142857142)">110,700,000</text><text y="0.32em" transform="translate(40,272.66666666666663)">111,500,000</text><text y="0.32em" transform="translate(40,287.04761904761904)">112,000,000</text><text y="0.32em" transform="translate(40,301.4285714285714)">115,700,000</text><text y="0.32em" transform="translate(40,315.8095238095238)">119,800,000</text><text y="0.32em" transform="translate(40,330.19047619047615)">123,700,000</text><text y="0.32em" transform="translate(40,344.57142857142856)">130,600,000</text><text y="0.32em" transform="translate(40,358.9523809523809)">143,300,000</text><text y="0.32em" transform="translate(40,373.3333333333333)">144,500,000</text><text y="0.32em" transform="translate(40,387.71428571428567)">151,400,000</text><text y="0.32em" transform="translate(40,402.0952380952381)">157,700,000</text><text y="0.32em" transform="translate(40,416.4761904761904)">157,900,000</text><text y="0.32em" transform="translate(40,430.85714285714283)">161,800,000</text><text y="0.32em" transform="translate(40,445.2380952380952)">164,700,000</text><text y="0.32em" transform="translate(40,459.6190476190476)">2,300,000</text><text y="0.32em" transform="translate(40,473.99999999999994)">2,700,000</text><text y="0.32em" transform="translate(40,488.38095238095235)">2,928,000</text><text y="0.32em" transform="translate(40,502.76190476190476)">27,400,000</text><text y="0.32em" transform="translate(40,517.1428571428571)">27,500,000</text><text y="0.32em" transform="translate(40,531.5238095238095)">273,000,000</text><text y="0.32em" transform="translate(40,545.9047619047619)">29,100,000</text><text y="0.32em" transform="translate(40,560.2857142857142)">3,346,456</text><text y="0.32em" transform="translate(40,574.6666666666666)">3,666,500</text><text y="0.32em" transform="translate(40,589.047619047619)">3,890,500</text><text y="0.32em" transform="translate(40,603.4285714285714)">30,100,000</text><text y="0.32em" transform="translate(40,617.8095238095237)">37,600,000</text><text y="0.32em" transform="translate(40,632.1904761904761)">4,338,500</text><text y="0.32em" transform="translate(40,646.5714285714286)">400,000,000</text><text y="0.32em" transform="translate(40,660.952380952381)">48,800,000</text><text y="0.32em" transform="translate(40,675.3333333333333)">50,000,000</text><text y="0.32em" transform="translate(40,689.7142857142857)">52,600,000</text><text y="0.32em" transform="translate(40,704.0952380952381)">53,300,000</text><text y="0.32em" transform="translate(40,718.4761904761905)">58,400,000</text><text y="0.32em" transform="translate(40,732.8571428571429)">609,600</text><text y="0.32em" transform="translate(40,747.2380952380952)">643,200</text><text y="0.32em" transform="translate(40,761.6190476190476)">65,300,000</text><text y="0.32em" transform="translate(40,776)">66,200,000</text><text y="0.32em" transform="translate(40,790.3809523809524)">67,000,000</text><text y="0.32em" transform="translate(40,804.7619047619047)">67,400,000</text><text y="0.32em" transform="translate(40,819.1428571428571)">68,700,000</text><text y="0.32em" transform="translate(40,833.5238095238095)">686,500</text><text y="0.32em" transform="translate(40,847.9047619047619)">69,700,000</text><text y="0.32em" transform="translate(40,862.2857142857142)">70,200,000</text><text y="0.32em" transform="translate(40,876.6666666666666)">74,100,000</text><text y="0.32em" transform="translate(40,891.047619047619)">74,600,000</text><text y="0.32em" transform="translate(40,905.4285714285714)">74,700,000</text><text y="0.32em" transform="translate(40,919.8095238095237)">74,900,000</text><text y="0.32em" transform="translate(40,934.1904761904761)">75,900,000</text><text y="0.32em" transform="translate(40,948.5714285714286)">76,600,000</text><text y="0.32em" transform="translate(40,962.952380952381)">77,000,000</text><text y="0.32em" transform="translate(40,977.3333333333334)">78,000,000</text><text y="0.32em" transform="translate(40,991.7142857142857)">78,700,000</text><text y="0.32em" transform="translate(40,1006.0952380952381)">78,900,000</text><text y="0.32em" transform="translate(40,1020.4761904761905)">80,800,000</text><text y="0.32em" transform="translate(40,1034.857142857143)">81,800,000</text><text y="0.32em" transform="translate(40,1049.2380952380952)">83,000,000</text><text y="0.32em" transform="translate(40,1063.6190476190477)">83,900,000</text><text y="0.32em" transform="translate(40,1078)">84,200,000</text><text y="0.32em" transform="translate(40,1092.3809523809523)">86,300,000</text><text y="0.32em" transform="translate(40,1106.7619047619048)">87,300,000</text><text y="0.32em" transform="translate(40,1121.142857142857)">89,600,000</text><text y="0.32em" transform="translate(40,1135.5238095238094)">90,000,000</text><text y="0.32em" transform="translate(40,1149.904761904762)">91,200,000</text><text y="0.32em" transform="translate(40,1164.2857142857142)">91,600,000</text><text y="0.32em" transform="translate(40,1178.6666666666667)">92,900,000</text><text y="0.32em" transform="translate(40,1193.047619047619)">93,700,000</text><text y="0.32em" transform="translate(40,1207.4285714285713)">94,000,000</text><text y="0.32em" transform="translate(40,1221.8095238095239)">94,400,000</text></g><g aria-label="y-axis label" transform="translate(-37,0)"><text y="0.71em" transform="translate(40,625) rotate(-90)">Prix de vente</text></g><g aria-label="x-axis tick" fill="none" stroke="currentColor"><path transform="translate(84.85432473444612,1230)" d="M0,0L0,6"/><path transform="translate(172.5629742033384,1230)" d="M0,0L0,6"/><path transform="translate(260.27162367223065,1230)" d="M0,0L0,6"/><path transform="translate(347.9802731411229,1230)" d="M0,0L0,6"/><path transform="translate(435.6889226100152,1230)" d="M0,0L0,6"/><path transform="translate(523.3975720789074,1230)" d="M0,0L0,6"/><path transform="translate(611.1062215477997,1230)" d="M0,0L0,6"/></g><g aria-label="x-axis tick label" font-variant="tabular-nums" transform="translate(0,9)"><text y="0.71em" transform="translate(84.85432473444612,1230)">1,400</text><text y="0.71em" transform="translate(172.5629742033384,1230)">1,500</text><text y="0.71em" transform="translate(260.27162367223065,1230)">1,600</text><text y="0.71em" transform="translate(347.9802731411229,1230)">1,700</text><text y="0.71em" transform="translate(435.6889226100152,1230)">1,800</text><text y="0.71em" transform="translate(523.3975720789074,1230)">1,900</text><text y="0.71em" transform="translate(611.1062215477997,1230)">2,000</text></g><g aria-label="x-axis label" text-anchor="end" transform="translate(17,27)"><text transform="translate(620,1230)">Année de création →</text></g><g aria-label="rule" stroke="currentColor"><line x1="40" x2="620" y1="28.190476190476147" y2="28.190476190476147"/></g><g aria-label="image"><image x="493.74962063732926" y="1173.047619047619" width="40" height="40" href="https://upload.wikimedia.org/wikipedia/commons/thumb/c/ce/Wheat-Field-with-Cypresses-%281889%29-Vincent-van-Gogh-Met.jpg/2880px-Wheat-Field-with-Cypresses-%281889%29-Vincent-van-Gogh-Met.jpg"/><image x="507.78300455235205" y="914.1904761904761" width="40" height="40" href="http://uploads7.wikiart.org/images/pablo-picasso/acrobat-and-young-harlequin-1905.jpg"/><image x="513.9226100151745" y="166.38095238095235" width="40" height="40" href="http://upload.wikimedia.org/wikipedia/commons/thumb/3/33/Gustav_Klimt_047.jpg/95px-Gustav_Klimt_047.jpg"/><image x="563.0394537177541" y="209.5238095238095" width="40" height="40" href="http://artscash.com/images/paintings/Barnett-Newman-Anna's-Light-1968.jpg"/><image x="506.90591805766303" y="928.5714285714286" width="40" height="40" href="http://vineartshouston.files.wordpress.com/2012/05/picasso.jpg"/><image x="482.3474962063733" y="338.9523809523809" width="40" height="40" href="https://upload.wikimedia.org/wikipedia/commons/2/21/Pierre-Auguste_Renoir%2C_Le_Moulin_de_la_Galette.jpg"/><image x="556.8998482549317" y="1058" width="40" height="40" href="https://upload.wikimedia.org/wikipedia/en/7/79/Black_Fire_I.jpg"/><image x="175.36722306525036" y="971.7142857142857" width="40" height="40" href="http://upload.wikimedia.org/wikipedia/commons/thumb/4/4e/Darmstadtmadonna.jpg/95px-Darmstadtmadonna.jpg"/><image x="201.67981790591804" y="986.0952380952381" width="40" height="40" href="http://www.nationalgallery.org.uk/upload/img/titian-diana-and-actaeon-NG6611-fm.jpg"/><image x="204.3110773899848" y="856.6666666666666" width="40" height="40" href="http://upload.wikimedia.org/wikipedia/commons/thumb/1/1a/TitianDianaCallistoEdinburgh.jpg/95px-TitianDianaCallistoEdinburgh.jpg"/><image x="539.3581183611533" y="252.66666666666663" width="40" height="40" href="http://upload.wikimedia.org/wikipedia/en/c/c3/Dora_Maar_Au_Chat.jpg"/><image x="543.743550834598" y="799.1428571428571" width="40" height="40" href="https://live.staticflickr.com/3666/9398344870_ac3b14818e_z.jpg"/><image x="558.6540212443095" y="223.90476190476187" width="40" height="40" href="http://upload.wikimedia.org/wikipedia/en/b/be/Eight_Elvises.jpg"/><image x="555.1456752655539" y="1187.4285714285713" width="40" height="40" href="https://live.staticflickr.com/3123/3159792607_d867e25e18_b.jpg"/><image x="536.7268588770864" y="827.9047619047619" width="40" height="40" href="http://webneel.com/sites/default/files/images/manual/paint-exp/29-femme-assise-dans-un-jardin.jpg"/><image x="505.1517450682852" y="899.8095238095237" width="40" height="40" href="http://upload.wikimedia.org/wikipedia/en/thumb/0/00/Pablo_Picasso%2C_1901-02%2C_Femme_aux_Bras_Crois%C3%A9s%2C_Woman_with_Folded_Arms_%28Madchenbildnis%29%2C_oil_on_canvas%2C_81_%C3%97_58_cm_%2832_%C3%97_23_in%29.jpg/95px-Pablo_Picasso%2C_1901-02%2C_Femme_aux_Bras_Crois%C3%A9s%2C_Woman_with_Folded_Arms_%28Madchenbildnis%29%2C_oil_on_canvas%2C_81_%C3%97_58_cm_%2832_%C3%97_23_in%29.jpg"/><image x="550.7602427921092" y="295.8095238095238" width="40" height="40" href="https://upload.wikimedia.org/wikipedia/en/6/6b/Jasper_Johns%27s_%27Flag%27%2C_Encaustic%2C_oil_and_collage_on_fabric_mounted_on_plywood%2C1954-55.jpg"/><image x="507.78300455235205" y="324.57142857142856" width="40" height="40" href="http://upload.wikimedia.org/wikipedia/en/thumb/9/9c/Gar%C3%A7on_%C3%A0_la_pipe.jpg/95px-Gar%C3%A7on_%C3%A0_la_pipe.jpg"/><image x="558.6540212443095" y="1014.8571428571429" width="40" height="40" href="https://upload.wikimedia.org/wikipedia/en/0/06/Green_Car_Crash_by_Andy_Warhol_%281963%29.jpg"/><image x="493.74962063732926" y="238.28571428571422" width="40" height="40" href="http://upload.wikimedia.org/wikipedia/commons/thumb/3/3e/Irises-Vincent_van_Gogh.jpg/95px-Irises-Vincent_van_Gogh.jpg"/><image x="520.062215477997" y="1086.7619047619048" width="40" height="40" href="http://upload.wikimedia.org/wikipedia/commons/thumb/f/fd/Le_bassin_aux_nymph%C3%A9as_-_Claude_Monet.jpg/95px-Le_bassin_aux_nymph%C3%A9as_-_Claude_Monet.jpg"/><image x="531.464339908953" y="396.4761904761904" width="40" height="40" href="http://upload.wikimedia.org/wikipedia/en/9/9d/Le-reve-1932.jpg"/><image x="507.78300455235205" y="1158.6666666666667" width="40" height="40" href="http://upload.wikimedia.org/wikipedia/en/3/34/Lesnoces.JPG"/><image x="249.91957511380878" y="137.6190476190476" width="40" height="40" href="http://upload.wikimedia.org/wikipedia/commons/thumb/7/7c/0_Le_Massacre_des_Innocents_d%27apr%C3%A8s_P.P._Rubens_-_Mus%C3%A9es_royaux_des_beaux-arts_de_Belgique_%282%29.JPG/95px-0_Le_Massacre_des_Innocents_d%27apr%C3%A8s_P.P._Rubens_-_Mus%C3%A9es_royaux_des_beaux-arts_de_Belgique_%282%29.JPG"/><image x="557.7769347496206" y="799.1428571428571" width="40" height="40" href="https://upload.wikimedia.org/wikipedia/en/5/55/Men_in_her_life_by_Andy_Warhol_%281962%29.jpg"/><image x="550.7602427921092" y="942.952380952381" width="40" height="40" href="http://www.markrothko.org/wp-content/uploads/2014/07/No-1-royal-red-and-blue-Mark-Rothko.jpg"/><image x="545.4977238239758" y="425.2380952380952" width="40" height="40" href="https://upload.wikimedia.org/wikipedia/en/4/4a/No._5%2C_1948.jpg"/><image x="518.3080424886191" y="885.4285714285714" width="40" height="40" href="http://upload.wikimedia.org/wikipedia/commons/thumb/c/cc/Amedeo_Modigliani_063.jpg/95px-Amedeo_Modigliani_063.jpg"/><image x="531.464339908953" y="281.4285714285714" width="40" height="40" href="http://upload.wikimedia.org/wikipedia/en/2/2b/Nude_Green_Leaves_and_Bust_by_Picasso.jpg"/><image x="556.8998482549317" y="1101.142857142857" width="40" height="40" href="http://www.markrothko.org/images/paintings/orange-red-yellow.jpg"/><image x="494.62670713201817" y="842.2857142857142" width="40" height="40" href="http://upload.wikimedia.org/wikipedia/commons/thumb/f/ff/Vincent_Willem_van_Gogh_097.jpg/95px-Vincent_Willem_van_Gogh_097.jpg"/><image x="551.6373292867981" y="871.047619047619" width="40" height="40" href="http://webneel.com/daily/sites/default/files/images/daily/10-2013/27-most-expensive-painting-police-gazette.jpg"/><image x="493.74962063732926" y="151.99999999999997" width="40" height="40" href="http://upload.wikimedia.org/wikipedia/commons/thumb/7/71/Vincent_Willem_van_Gogh_102.jpg/95px-Vincent_Willem_van_Gogh_102.jpg"/><image x="185.01517450682854" y="784.7619047619047" width="40" height="40" href="http://upload.wikimedia.org/wikipedia/commons/thumb/1/13/Pontormo_%28Jacopo_Carucci%29_%28Italian%2C_Florentine%29_-_Portrait_of_a_Halberdier_%28Francesco_Guardi%3F%29_-_Google_Art_Project.jpg/95px-Pontormo_%28Jacopo_Carucci%29_%28Italian%2C_Florentine%29_-_Portrait_of_a_Halberdier_%28Francesco_Guardi%3F%29_-_Google_Art_Project.jpg"/><image x="509.5371775417299" y="382.0952380952381" width="40" height="40" href="http://upload.wikimedia.org/wikipedia/commons/thumb/8/84/Gustav_Klimt_046.jpg/95px-Gustav_Klimt_046.jpg"/><image x="181.50682852807284" y="1115.5238095238094" width="40" height="40" href="http://upload.wikimedia.org/wikipedia/commons/thumb/a/ac/Titian_-_Marchese_del_Vasto.jpg/95px-Titian_-_Marchese_del_Vasto.jpg"/><image x="494.62670713201817" y="367.71428571428567" width="40" height="40" href="http://upload.wikimedia.org/wikipedia/commons/thumb/1/1e/Portrait_of_Dr._Gachet.jpg/95px-Portrait_of_Dr._Gachet.jpg"/><image x="493.74962063732926" y="267.04761904761904" width="40" height="40" href="http://upload.wikimedia.org/wikipedia/commons/thumb/2/23/Vincent_van_Gogh_-_Portrait_of_Joseph_Roulin.jpg/95px-Vincent_van_Gogh_-_Portrait_of_Joseph_Roulin.jpg"/><image x="498.1350531107739" y="1072.3809523809523" width="40" height="40" href="https://upload.wikimedia.org/wikipedia/commons/3/3a/Rideau%2C_Cruchon_et_Compotier%2C_par_Paul_C%C3%A9zanne%2C_Yorck_Project.jpg"/><image x="169.22761760242793" y="626.5714285714286" width="40" height="40" href="http://upload.wikimedia.org/wikipedia/commons/thumb/1/1f/Leonardo_da_Vinci_or_Boltraffio_%28attrib%29_Salvator_Mundi_circa_1500.jpg/95px-Leonardo_da_Vinci_or_Boltraffio_%28attrib%29_Salvator_Mundi_circa_1500.jpg"/><image x="558.6540212443095" y="195.1428571428571" width="40" height="40" href="https://upload.wikimedia.org/wikipedia/en/2/2d/Silver_Car_Crash_by_Andy_Warhol_%281963%29.jpg"/><image x="517.4309559939302" y="770.3809523809524" width="40" height="40" href="http://upload.wikimedia.org/wikipedia/commons/thumb/1/13/Suprematist_Composition_-_Kazimir_Malevich.jpg/95px-Suprematist_Composition_-_Kazimir_Malevich.jpg"/><image x="496.3808801213961" y="511.5238095238095" width="40" height="40" href="http://upload.wikimedia.org/wikipedia/commons/thumb/5/58/Card_Players-Paul_Cezanne.jpg/95px-Card_Players-Paul_Cezanne.jpg"/><image x="481.4704097116844" y="957.3333333333334" width="40" height="40" href="http://upload.wikimedia.org/wikipedia/commons/thumb/4/41/Thomas_Eakins%2C_American_-_Portrait_of_Dr._Samuel_D._Gross_%28The_Gross_Clinic%29_-_Google_Art_Project.jpg/95px-Thomas_Eakins%2C_American_-_Portrait_of_Dr._Samuel_D._Gross_%28The_Gross_Clinic%29_-_Google_Art_Project.jpg"/><image x="499.01213960546283" y="310.19047619047615" width="40" height="40" href="https://upload.wikimedia.org/wikipedia/commons/3/34/Edvard-Munch-The-Scream.jpg"/><image x="577.072837632777" y="1000.4761904761905" width="40" height="40" href="http://fm.cnbc.com/applications/cnbc.com/resources/img/editorial/2014/05/13/101669179-Untitled-4.530x298.jpg?v=1400076313"/><image x="563.9165402124431" y="353.3333333333333" width="40" height="40" href="https://upload.wikimedia.org/wikipedia/en/3/31/Three_Studies_of_Lucian_Freud.jpg"/><image x="570.0561456752656" y="1201.8095238095239" width="40" height="40" href="http://p8.storage.canalblog.com/85/37/119589/25633392.jpg"/><image x="559.5311077389985" y="1129.904761904762" width="40" height="40" href="https://upload.wikimedia.org/wikipedia/en/5/5c/Shot_Marilyns.jpg"/><image x="549.0060698027314" y="756" width="40" height="40" href="https://www.mark-rothko.org/assets/img/paintings/untitled-1952.jpg"/><image x="492.87253414264035" y="1043.6190476190477" width="40" height="40" href="http://upload.wikimedia.org/wikipedia/commons/thumb/4/46/Vincent_Willem_van_Gogh_127.jpg/95px-Vincent_Willem_van_Gogh_127.jpg"/><image x="547.2518968133536" y="1029.2380952380952" width="40" height="40" href="http://totallyhistory.com/wp-content/uploads/2013/01/Mark_Rothko_White_Center_Yellow_Pink_and_Lavender_on_Rose_1950.jpg"/><image x="549.8831562974203" y="410.85714285714283" width="40" height="40" href="http://upload.wikimedia.org/wikipedia/en/e/e7/Woman3.jpg"/><image x="504.2746585735964" y="1144.2857142857142" width="40" height="40" href="http://ayay.co.uk/arts/picasso/1900s/self-portrait-yo-picasso.jpg"/><image x="21" y="741.6190476190476" width="40" height="40" href="https://upload.wikimedia.org/wikipedia/commons/a/ab/ZhichuanResettlement.jpg"/><image x="590.2291350531108" y="540.2857142857142" width="40" height="40" href="http://upload.wikimedia.org/wikipedia/en/b/bc/99_cent_II%2C_diptychon_-_Photo_courtesy_of_Sotheby%27s.jpg"/><image x="578.8270106221548" y="727.2380952380952" width="40" height="40" href="http://media-cache-ak0.pinimg.com/originals/01/2e/78/012e786d529a1055379736c345204e2a.jpg"/><image x="484.97875569044004" y="439.6190476190476" width="40" height="40" href="http://upload.wikimedia.org/wikipedia/commons/c/c2/Billy_the_Kid_corrected.jpg"/><image x="578.8270106221548" y="554.6666666666666" width="40" height="40" href="https://upload.wikimedia.org/wikipedia/en/5/53/Dead_Troops_Talk_%28Wall_photograph%29.jpg"/><image x="551.6373292867981" y="51.333333333333286" width="40" height="40" href="https://iconicphotos.files.wordpress.com/2023/10/f212b-avedon-elephant-picture1.png"/><image x="518.3080424886191" y="94.47619047619044" width="40" height="40" href="https://upload.wikimedia.org/wikipedia/commons/3/3b/Georgia_O%27Keeffe_%E2%80%94_Hands_MET_DP232991.jpg"/><image x="519.1851289833081" y="80.09523809523806" width="40" height="40" href="https://arthur.io/img/art/jpg/00017344a19014276/alfred-stieglitz/georgia-okeeffe-19/large-2x/alfred-stieglitz--georgia-okeeffe-19.webp"/><image x="501.64339908952957" y="813.5238095238095" width="40" height="40" href="http://www.christies.com/lotfinderimages/d53042/d5304289l.jpg"/><image x="539.3581183611533" y="712.8571428571429" width="40" height="40" href="http://upload.wikimedia.org/wikipedia/en/thumb/e/e3/Moonrise%2C_Hernandez%2C_New_Mexico.jpg/220px-Moonrise%2C_Hernandez%2C_New_Mexico.jpg"/><image x="527.0789074355083" y="36.952380952380906" width="40" height="40" href="https://www.artnet.fr/WebServices/images/ll00135lldGUbJFgOjECfDrCWvaHBOcRbxF/edward-weston-shell-(nautilus).jpg"/><image x="525.3247344461305" y="108.85714285714283" width="40" height="40" href="http://3.bp.blogspot.com/_COhqqZM8RS0/TF9OSsAb9rI/AAAAAAAAAkw/sZPLGvMg0lE/s1600/sothebys_edward_weston_nude.jpg"/><image x="598.122913505311" y="22.571428571428527" width="40" height="40" href="https://lik.com/cdn/shop/articles/d159d32b13efaa20bd8f0f8952efc002_1600x1060.jpg?v=1627514470"/><image x="590.2291350531108" y="612.1904761904761" width="40" height="40" href="http://upload.wikimedia.org/wikipedia/en/thumb/a/aa/Rhein_II.jpg/300px-Rhein_II.jpg"/><image x="506.90591805766303" y="468.38095238095235" width="40" height="40" href="https://upload.wikimedia.org/wikipedia/commons/c/cf/Edward_Steichen_%28American%29_-_%28Moonlight_-_The_Pond%29_-_Google_Art_Project.jpg"/><image x="599" y="123.23809523809518" width="40" height="40" href="http://upload.wikimedia.org/wikipedia/commons/e/e4/Tobolsk_Kremlin_by_Dmitry_Medvedev_BW.JPG"/><image x="585.8437025796662" y="22.571428571428527" width="40" height="40" href="http://artblart.files.wordpress.com/2013/02/exhi014822_web.jpg"/><image x="583.2124430955994" y="65.71428571428567" width="40" height="40" href="http://www.metmuseum.org/toah/images/h2/h2_2000.272.jpg"/><image x="577.9499241274659" y="453.99999999999994" width="40" height="40" href="http://upload.wikimedia.org/wikipedia/en/a/a9/Cindy-sherman-untitled-153.jpg"/><image x="574.4415781487102" y="569.047619047619" width="40" height="40" href="http://upload.wikimedia.org/wikipedia/en/6/65/Cindy_Sherman%27s_photo_Untitled_96.jpg"/><image x="585.8437025796662" y="698.4761904761905" width="40" height="40" href="https://www.christies.com/img/LotImages/2013/NYR/2013_NYR_02791_0012_000(jeff_koons_balloon_dog072521).jpg?mode=max"/><image x="522.6934749620638" y="497.1428571428571" width="40" height="40" href="http://annex.guggenheim.org/collections/media/full/76.2553.51_ph_web.jpg"/><image x="551.6373292867981" y="655.3333333333333" width="40" height="40" href="http://upload.wikimedia.org/wikipedia/en/2/28/Grande_t%C3%AAte_mince_front_and_side_views.jpg"/><image x="555.1456752655539" y="482.76190476190476" width="40" height="40" href="https://c1.staticflickr.com/5/4154/5043461038_8cd892bb15_z.jpg"/><image x="551.6373292867981" y="684.0952380952381" width="40" height="40" href="http://upload.wikimedia.org/wikipedia/en/2/28/Grande_t%C3%AAte_mince_front_and_side_views.jpg"/><image x="556.8998482549317" y="180.76190476190473" width="40" height="40" href="http://artpulsemagazine.com/wp-content/uploads/2010/07/lot-8-giacometti-lhomme-qui-marche-i-a.gif"/><image x="515.6767830045524" y="597.8095238095237" width="40" height="40" href="http://uploads5.wikiart.org/images/constantin-brancusi/madame-lr-portrait-de-mme-lr-1918.jpg!Blog.jpg"/><image x="554.2685887708649" y="640.952380952381" width="40" height="40" href="http://www.christies.com/lotfinderimages/d53694/henri_matisse_nu_de_dos_4_etat_d5369418h.jpg"/><image x="548.1289833080425" y="583.4285714285714" width="40" height="40" href="http://www.christies.com/lotfinderimages/d55323/henry_moore_reclining_figure_festival_d5532370h.jpg"/><image x="513.9226100151745" y="669.7142857142857" width="40" height="40" href="http://4.bp.blogspot.com/_E-uykHk4AyM/TBh7oAfF2KI/AAAAAAAAA2Y/5j5r4yMJe1c/s1600/modigliani.jpg"/><image x="539.3581183611533" y="525.9047619047619" width="40" height="40" href="http://upload.wikimedia.org/wikipedia/en/2/2b/Tete_de_femme_%28Dora_Maar%29.jpg"/></g></svg>