<svg xmlns="http://www.w3.org/2000/svg" width="805" height="600"><rect width="805" height="600" x="0" y="0" fill="#FFFFFF" id="background"/><g transform="translate(402.5,300)" id="viz"><g id="links"><path d="M0,0C5.8170722959499274e-15,95,7.730871946055225,-94.68491758962298,15.46174389211045,-189.36983517924597" fill="none" stroke="#ccc"/><path d="M0,0C5.8170722959499274e-15,95,24.53188834604103,-91.77791920814819,49.06377669208206,-183.55583841629638" fill="none" stroke="#ccc"/><path d="M0,0C5.8170722959499274e-15,95,39.59326990703598,-86.35608246133332,79.18653981407196,-172.71216492266663" fill="none" stroke="#ccc"/><path d="M0,0C5.8170722959499274e-15,95,53.01239891196383,-78.83327699391177,106.02479782392766,-157.66655398782353" fill="none" stroke="#ccc"/><path d="M0,0C5.8170722959499274e-15,95,64.87444415063243,-69.39961452448041,129.74888830126486,-138.79922904896083" fill="none" stroke="#ccc"/><path d="M0,0C5.8170722959499274e-15,95,74.92597334805134,-58.40461041602023,149.8519466961027,-116.80922083204047" fill="none" stroke="#ccc"/><path d="M0,0C5.8170722959499274e-15,95,83.00912259143598,-46.20049314238922,166.01824518287196,-92.40098628477844" fill="none" stroke="#ccc"/><path d="M0,0C5.8170722959499274e-15,95,89.1214119435686,-32.89945186754255,178.2428238871372,-65.7989037350851" fill="none" stroke="#ccc"/><path d="M0,0C5.8170722959499274e-15,95,93.05622431476205,-19.119077286330782,186.1124486295241,-38.238154572661564" fill="none" stroke="#ccc"/><path d="M0,0C5.8170722959499274e-15,95,94.85696479786873,-5.211163913742457,189.71392959573745,-10.422327827484914" fill="none" stroke="#ccc"/><path d="M0,0C5.8170722959499274e-15,95,94.590583137928,8.810311097046092,189.181166275856,17.620622194092185" fill="none" stroke="#ccc"/><path d="M0,0C5.8170722959499274e-15,95,92.26288432173163,22.639791885853697,184.52576864346327,45.279583771707394" fill="none" stroke="#ccc"/><path d="M0,0C5.8170722959499274e-15,95,87.92459354142089,35.9759065288969,175.84918708284178,71.9518130577938" fill="none" stroke="#ccc"/><path d="M0,0C5.8170722959499274e-15,95,81.67025079154513,48.52803453310388,163.34050158309026,97.05606906620775" fill="none" stroke="#ccc"/><path d="M0,0C5.8170722959499274e-15,95,73.63615065433166,60.02264003534476,147.27230130866332,120.04528007068951" fill="none" stroke="#ccc"/><path d="M0,0C5.8170722959499274e-15,95,63.99737216934789,70.20923269355659,127.99474433869578,140.41846538711317" fill="none" stroke="#ccc"/><path d="M0,0C5.8170722959499274e-15,95,52.963963512610206,78.8658263700755,105.92792702522041,157.731652740151" fill="none" stroke="#ccc"/><path d="M0,0C5.8170722959499274e-15,95,40.77636462857853,85.80377665159739,81.55272925715705,171.60755330319478" fill="none" stroke="#ccc"/><path d="M0,0C5.8170722959499274e-15,95,27.700167565000122,90.87189178657455,55.400335130000244,181.7437835731491" fill="none" stroke="#ccc"/><path d="M0,0C5.8170722959499274e-15,95,14.02032869333996,93.95972745453612,28.04065738667992,187.91945490907224" fill="none" stroke="#ccc"/><path d="M0,0C5.8170722959499274e-15,95,0.4363377435824867,94.99899793878632,0.8726754871649735,189.99799587757263" fill="none" stroke="#ccc"/><path d="M0,0C5.8170722959499274e-15,95,-12.758998002209546,94.13930087896135,-25.517996004419093,188.2786017579227" fill="none" stroke="#ccc"/><path d="M0,0C5.8170722959499274e-15,95,-25.707132983296866,91.45569043957346,-51.41426596659373,182.91138087914692" fill="none" stroke="#ccc"/><path d="M0,0C5.8170722959499274e-15,95,-38.15720197748331,87.00016055875726,-76.31440395496662,174.00032111751452" fill="none" stroke="#ccc"/><path d="M0,0C5.8170722959499274e-15,95,-49.86798960285123,80.85903544422182,-99.73597920570246,161.71807088844363" fill="none" stroke="#ccc"/><path d="M0,0C5.8170722959499274e-15,95,-60.61260377463161,73.151297074348,-121.22520754926322,146.302594148696" fill="none" stroke="#ccc"/><path d="M0,0C5.8170722959499274e-15,95,-70.1828716536045,64.02627996732028,-140.365743307209,128.05255993464056" fill="none" stroke="#ccc"/><path d="M0,0C5.8170722959499274e-15,95,-78.39337291619113,53.660777881269965,-156.78674583238225,107.32155576253993" fill="none" stroke="#ccc"/><path d="M0,0C5.8170722959499274e-15,95,-85.08503220315325,42.25561850202142,-170.1700644063065,84.51123700404284" fill="none" stroke="#ccc"/><path d="M0,0C5.8170722959499274e-15,95,-90.12820114456458,30.031772482571004,-180.25640228912917,60.06354496514201" fill="none" stroke="#ccc"/><path d="M0,0C5.8170722959499274e-15,95,-93.42517024798404,17.226072220189906,-186.85034049596808,34.45214444037981" fill="none" stroke="#ccc"/><path d="M0,0C5.8170722959499274e-15,95,-94.91206198294788,4.086623318225114,-189.82412396589575,8.173246636450228" fill="none" stroke="#ccc"/><path d="M0,0C5.8170722959499274e-15,95,-94.56006838398322,-9.132002366207354,-189.12013676796644,-18.26400473241471" fill="none" stroke="#ccc"/><path d="M0,0C5.8170722959499274e-15,95,-92.37600919405266,-22.173698955751586,-184.7520183881053,-44.34739791150317" fill="none" stroke="#ccc"/><path d="M0,0C5.8170722959499274e-15,95,-88.40219973461153,-34.78578850740415,-176.80439946922306,-69.5715770148083" fill="none" stroke="#ccc"/><path d="M0,0C5.8170722959499274e-15,95,-82.71563106224545,-46.723916552173755,-165.4312621244909,-93.44783310434751" fill="none" stroke="#ccc"/><path d="M0,0C5.8170722959499274e-15,95,-75.4264782960439,-57.75678637057658,-150.8529565920878,-115.51357274115315" fill="none" stroke="#ccc"/><path d="M0,0C5.8170722959499274e-15,95,-66.67596601630238,-67.67064027917047,-133.35193203260476,-135.34128055834094" fill="none" stroke="#ccc"/><path d="M0,0C5.8170722959499274e-15,95,-56.6336320916479,-76.27340110489286,-113.2672641832958,-152.5468022097857" fill="none" stroke="#ccc"/><path d="M0,0C5.8170722959499274e-15,95,-45.49404294690202,-83.39839360770347,-90.98808589380404,-166.79678721540694" fill="none" stroke="#ccc"/><path d="M0,0C5.8170722959499274e-15,95,-33.47302391212585,-88.90757375037434,-66.9460478242517,-177.81514750074868" fill="none" stroke="#ccc"/><path d="M0,0C5.8170722959499274e-15,95,-20.803477688410343,-92.69420324954422,-41.606955376820686,-185.38840649908843" fill="none" stroke="#ccc"/><path d="M0,0C5.8170722959499274e-15,95,-7.730871946055279,-94.68491758962298,-15.461743892110558,-189.36983517924597" fill="none" stroke="#ccc"/></g><g><circle transform="&#xA;&#9;        rotate(90)&#xA;&#9;        translate(0,0)&#xA;&#9;      " fill="#ccc" r="5"/><circle transform="&#xA;&#9;        rotate(-85.33224541680508)&#xA;&#9;        translate(190,0)&#xA;&#9;      " fill="#cccccc" r="10"/><circle transform="&#xA;&#9;        rotate(-75.03491357132017)&#xA;&#9;        translate(190,0)&#xA;&#9;      " fill="#cccccc" r="7.9772403521746575"/><circle transform="&#xA;&#9;        rotate(-65.36908907549854)&#xA;&#9;        translate(190,0)&#xA;&#9;      " fill="#2ca02c" r="6.741998624632421"/><circle transform="&#xA;&#9;        rotate(-56.08065954321818)&#xA;&#9;        translate(190,0)&#xA;&#9;      " fill="#cccccc" r="6.030226891555273"/><circle transform="&#xA;&#9;        rotate(-46.930194679743444)&#xA;&#9;        translate(190,0)&#xA;&#9;      " fill="#cccccc" r="6.030226891555273"/><circle transform="&#xA;&#9;        rotate(-37.93632675068567)&#xA;&#9;        translate(190,0)&#xA;&#9;      " fill="#cccccc" r="5.222329678670935"/><circle transform="&#xA;&#9;        rotate(-29.099055756044912)&#xA;&#9;        translate(190,0)&#xA;&#9;      " fill="#cccccc" r="5.222329678670935"/><circle transform="&#xA;&#9;        rotate(-20.26178476140413)&#xA;&#9;        translate(190,0)&#xA;&#9;      " fill="#ff7f0e" r="5.222329678670935"/><circle transform="&#xA;&#9;        rotate(-11.610266661891018)&#xA;&#9;        translate(190,0)&#xA;&#9;      " fill="#cccccc" r="4.264014327112209"/><circle transform="&#xA;&#9;        rotate(-3.1445014575055836)&#xA;&#9;        translate(190,0)&#xA;&#9;      " fill="#7f7f7f" r="4.264014327112209"/><circle transform="&#xA;&#9;        rotate(5.3212637468798505)&#xA;&#9;        translate(190,0)&#xA;&#9;      " fill="#17becf" r="4.264014327112209"/><circle transform="&#xA;&#9;        rotate(13.787028951265299)&#xA;&#9;        translate(190,0)&#xA;&#9;      " fill="#cccccc" r="4.264014327112209"/><circle transform="&#xA;&#9;        rotate(22.252794155650733)&#xA;&#9;        translate(190,0)&#xA;&#9;      " fill="#bcbd22" r="4.264014327112209"/><circle transform="&#xA;&#9;        rotate(30.718559360036167)&#xA;&#9;        translate(190,0)&#xA;&#9;      " fill="#cccccc" r="4.264014327112209"/><circle transform="&#xA;&#9;        rotate(39.18432456442159)&#xA;&#9;        translate(190,0)&#xA;&#9;      " fill="#1f77b4" r="4.264014327112209"/><circle transform="&#xA;&#9;        rotate(47.65008976880705)&#xA;&#9;        translate(190,0)&#xA;&#9;      " fill="#1f77b4" r="4.264014327112209"/><circle transform="&#xA;&#9;        rotate(56.115854973192484)&#xA;&#9;        translate(190,0)&#xA;&#9;      " fill="#1f77b4" r="4.264014327112209"/><circle transform="&#xA;&#9;        rotate(64.58162017757792)&#xA;&#9;        translate(190,0)&#xA;&#9;      " fill="#1f77b4" r="4.264014327112209"/><circle transform="&#xA;&#9;        rotate(73.04738538196338)&#xA;&#9;        translate(190,0)&#xA;&#9;      " fill="#1f77b4" r="4.264014327112209"/><circle transform="&#xA;&#9;        rotate(81.51315058634881)&#xA;&#9;        translate(190,0)&#xA;&#9;      " fill="#cccccc" r="4.264014327112209"/><circle transform="&#xA;&#9;        rotate(89.73683790472518)&#xA;&#9;        translate(190,0)&#xA;&#9;      " fill="#8c564b" r="3.0151134457776365"/><circle transform="&#xA;&#9;        rotate(97.71844733709244)&#xA;&#9;        translate(190,0)&#xA;&#9;      " fill="#cccccc" r="3.0151134457776365"/><circle transform="&#xA;&#9;        rotate(105.70005676945968)&#xA;&#9;        translate(190,0)&#xA;&#9;      " fill="#cccccc" r="3.0151134457776365"/><circle transform="&#xA;&#9;        rotate(113.68166620182694)&#xA;&#9;        translate(190,0)&#xA;&#9;      " fill="#cccccc" r="3.0151134457776365"/><circle transform="&#xA;&#9;        rotate(121.66327563419424)&#xA;&#9;        translate(190,0)&#xA;&#9;      " fill="#9467bd" r="3.0151134457776365"/><circle transform="&#xA;&#9;        rotate(129.6448850665615)&#xA;&#9;        translate(190,0)&#xA;&#9;      " fill="#bcbd22" r="3.0151134457776365"/><circle transform="&#xA;&#9;        rotate(137.62649449892874)&#xA;&#9;        translate(190,0)&#xA;&#9;      " fill="#e377c2" r="3.0151134457776365"/><circle transform="&#xA;&#9;        rotate(145.60810393129606)&#xA;&#9;        translate(190,0)&#xA;&#9;      " fill="#cccccc" r="3.0151134457776365"/><circle transform="&#xA;&#9;        rotate(153.5897133636633)&#xA;&#9;        translate(190,0)&#xA;&#9;      " fill="#cccccc" r="3.0151134457776365"/><circle transform="&#xA;&#9;        rotate(161.57132279603056)&#xA;&#9;        translate(190,0)&#xA;&#9;      " fill="#cccccc" r="3.0151134457776365"/><circle transform="&#xA;&#9;        rotate(169.55293222839788)&#xA;&#9;        translate(190,0)&#xA;&#9;      " fill="#cccccc" r="3.0151134457776365"/><circle transform="&#xA;&#9;        rotate(177.53454166076511)&#xA;&#9;        translate(190,0)&#xA;&#9;      " fill="#d62728" r="3.0151134457776365"/><circle transform="&#xA;&#9;        rotate(185.51615109313235)&#xA;&#9;        translate(190,0)&#xA;&#9;      " fill="#1f77b4" r="3.0151134457776365"/><circle transform="&#xA;&#9;        rotate(193.4977605254997)&#xA;&#9;        translate(190,0)&#xA;&#9;      " fill="#1f77b4" r="3.0151134457776365"/><circle transform="&#xA;&#9;        rotate(201.47936995786694)&#xA;&#9;        translate(190,0)&#xA;&#9;      " fill="#1f77b4" r="3.0151134457776365"/><circle transform="&#xA;&#9;        rotate(209.46097939023417)&#xA;&#9;        translate(190,0)&#xA;&#9;      " fill="#1f77b4" r="3.0151134457776365"/><circle transform="&#xA;&#9;        rotate(217.4425888226014)&#xA;&#9;        translate(190,0)&#xA;&#9;      " fill="#1f77b4" r="3.0151134457776365"/><circle transform="&#xA;&#9;        rotate(225.4241982549687)&#xA;&#9;        translate(190,0)&#xA;&#9;      " fill="#1f77b4" r="3.0151134457776365"/><circle transform="&#xA;&#9;        rotate(233.405807687336)&#xA;&#9;        translate(190,0)&#xA;&#9;      " fill="#1f77b4" r="3.0151134457776365"/><circle transform="&#xA;&#9;        rotate(241.38741711970323)&#xA;&#9;        translate(190,0)&#xA;&#9;      " fill="#1f77b4" r="3.0151134457776365"/><circle transform="&#xA;&#9;        rotate(249.36902655207052)&#xA;&#9;        translate(190,0)&#xA;&#9;      " fill="#cccccc" r="3.0151134457776365"/><circle transform="&#xA;&#9;        rotate(257.3506359844378)&#xA;&#9;        translate(190,0)&#xA;&#9;      " fill="#cccccc" r="3.0151134457776365"/><circle transform="&#xA;&#9;        rotate(265.33224541680505)&#xA;&#9;        translate(190,0)&#xA;&#9;      " fill="#cccccc" r="3.0151134457776365"/></g><g id="labels"><g transform="&#xA;&#9;        rotate(90)&#xA;&#9;        translate(0,0)&#xA;&#9;        rotate(180)&#xA;&#9;      "><text x="0" y="0" text-anchor="middle" dominant-baseline="text-before-edge" transform="translate(0,0)"><tspan x="6" y="0" dy="0" text-anchor="start" style="font-family: Arial, sans-serif; font-size: 10px; fill: black; font-weight: normal;"/></text></g><g transform="&#xA;&#9;        rotate(-85.33224541680508)&#xA;&#9;        translate(190,0)&#xA;&#9;        rotate(0)&#xA;&#9;      "><text x="0" y="0" text-anchor="middle" dominant-baseline="text-before-edge" transform="translate(0,-12)"><tspan x="15" y="0" dy="0" text-anchor="start" style="font-family: Arial, sans-serif; font-size: 10px; fill: black; font-weight: bold;">Mitsukoshi,Walter H. Annenberg,Boris Ivanishvili,Anonymous,,Barilla Group,Steven A. Cohen,Tomonori Tsurumaki,Stavros Niarchos,Franck Giraud</tspan><tspan x="15" y="0" dy="12" text-anchor="start" style="font-family: Arial, sans-serif; font-size: 10px; fill: black; font-weight: normal;">http://uploads7.wikiart.org/images/pablo-picasso/acrobat-and-young-harlequin-1905.jpg,http://vineartshouston.files.wordpress.com/2012/05/picasso.jpg,http://upload.wikimedia.org/wikipedia/en/c/c3/Dora_Maar_Au_Chat.jpg,http://webneel.com/sites/default/files/images/manual/paint-exp/29-femme-assise-dans-un-jardin.jpg,http://upload.wikimedia.org/wikipedia/en/thumb/0/00/Pablo_Picasso%2C_1901-02%2C_Femme_aux_Bras_Crois%C3%A9s%2C_Woman_with_Folded_Arms_%28Madchenbildnis%29%2C_oil_on_canvas%2C_81_%C3%97_58_cm_%2832_%C3%97_23_in%29.jpg/95px-Pablo_Picasso%2C_1901-02%2C_Femme_aux_Bras_Crois%C3%A9s%2C_Woman_with_Folded_Arms_%28Madchenbildnis%29%2C_oil_on_canvas%2C_81_%C3%97_58_cm_%2832_%C3%97_23_in%29.jpg,http://upload.wikimedia.org/wikipedia/en/thumb/9/9c/Gar%C3%A7on_%C3%A0_la_pipe.jpg/95px-Gar%C3%A7on_%C3%A0_la_pipe.jpg,http://upload.wikimedia.org/wikipedia/en/9/9d/Le-reve-1932.jpg,http://upload.wikimedia.org/wikipedia/en/3/34/Lesnoces.JPG,http://upload.wikimedia.org/wikipedia/en/2/2b/Nude_Green_Leaves_and_Bust_by_Picasso.jpg,http://ayay.co.uk/arts/picasso/1900s/self-portrait-yo-picasso.jpg,http://upload.wikimedia.org/wikipedia/en/2/2b/Tete_de_femme_%28Dora_Maar%29.jpg</tspan></text></g><g transform="&#xA;&#9;        rotate(-75.03491357132017)&#xA;&#9;        translate(190,0)&#xA;&#9;        rotate(0)&#xA;&#9;      "><text x="0" y="0" text-anchor="middle" dominant-baseline="text-before-edge" transform="translate(0,-12)"><tspan x="12.977240352174658" y="0" dy="0" text-anchor="start" style="font-family: Arial, sans-serif; font-size: 10px; fill: black; font-weight: bold;">Walter H. Annenberg,Alan Bond,Steve Wynn,,Ryoei Saito.,Museum of Modern Art New York,Yasuo Goto, Yasuda Comp.</tspan><tspan x="12.977240352174658" y="0" dy="12" text-anchor="start" style="font-family: Arial, sans-serif; font-size: 10px; fill: black; font-weight: normal;">https://upload.wikimedia.org/wikipedia/commons/thumb/c/ce/Wheat-Field-with-Cypresses-%281889%29-Vincent-van-Gogh-Met.jpg/2880px-Wheat-Field-with-Cypresses-%281889%29-Vincent-van-Gogh-Met.jpg,http://upload.wikimedia.org/wikipedia/commons/thumb/3/3e/Irises-Vincent_van_Gogh.jpg/95px-Irises-Vincent_van_Gogh.jpg,http://upload.wikimedia.org/wikipedia/commons/thumb/f/ff/Vincent_Willem_van_Gogh_097.jpg/95px-Vincent_Willem_van_Gogh_097.jpg,http://upload.wikimedia.org/wikipedia/commons/thumb/7/71/Vincent_Willem_van_Gogh_102.jpg/95px-Vincent_Willem_van_Gogh_102.jpg,http://upload.wikimedia.org/wikipedia/commons/thumb/1/1e/Portrait_of_Dr._Gachet.jpg/95px-Portrait_of_Dr._Gachet.jpg,http://upload.wikimedia.org/wikipedia/commons/thumb/2/23/Vincent_van_Gogh_-_Portrait_of_Joseph_Roulin.jpg/95px-Vincent_van_Gogh_-_Portrait_of_Joseph_Roulin.jpg,http://upload.wikimedia.org/wikipedia/commons/thumb/4/46/Vincent_Willem_van_Gogh_127.jpg/95px-Vincent_Willem_van_Gogh_127.jpg</tspan></text></g><g transform="&#xA;&#9;        rotate(-65.36908907549854)&#xA;&#9;        translate(190,0)&#xA;&#9;        rotate(0)&#xA;&#9;      "><text x="0" y="0" text-anchor="middle" dominant-baseline="text-before-edge" transform="translate(0,-12)"><tspan x="11.741998624632421" y="0" dy="0" text-anchor="start" style="font-family: Arial, sans-serif; font-size: 10px; fill: black; font-weight: bold;">Anonymous,Philip Niarchos,Steven A. Cohen</tspan><tspan x="11.741998624632421" y="0" dy="12" text-anchor="start" style="font-family: Arial, sans-serif; font-size: 10px; fill: black; font-weight: normal;">http://upload.wikimedia.org/wikipedia/en/b/be/Eight_Elvises.jpg,https://upload.wikimedia.org/wikipedia/en/0/06/Green_Car_Crash_by_Andy_Warhol_%281963%29.jpg,http://www.bloomberg.com/image/im9k1S6gOBdk.jpg,http://www.theartwolf.com/news/images/warhol-silver-car-crash-double-disaster.jpg,http://www.therealbest.com/img/items/big/587/Turquoise-Marilyn_The-Head-of-Marilyn_789.jpg</tspan></text></g><g transform="&#xA;&#9;        rotate(-56.08065954321818)&#xA;&#9;        translate(190,0)&#xA;&#9;        rotate(0)&#xA;&#9;      "><text x="0" y="0" text-anchor="middle" dominant-baseline="text-before-edge" transform="translate(0,-12)"><tspan x="11.030226891555273" y="0" dy="0" text-anchor="start" style="font-family: Arial, sans-serif; font-size: 10px; fill: black; font-weight: bold;">Anonymous,Sheikh Hamad bin Khalifa Al-Thani</tspan><tspan x="11.030226891555273" y="0" dy="12" text-anchor="start" style="font-family: Arial, sans-serif; font-size: 10px; fill: black; font-weight: normal;">http://www.markrothko.org/wp-content/uploads/2014/07/No-1-royal-red-and-blue-Mark-Rothko.jpg,http://www.markrothko.org/images/paintings/orange-red-yellow.jpg,http://www.christies.com/sales/post-war-and-contemporary-new-york-november-2013/rothko/images/overview/animated-pic-rothko-1.jpg,http://totallyhistory.com/wp-content/uploads/2013/01/Mark_Rothko_White_Center_Yellow_Pink_and_Lavender_on_Rose_1950.jpg</tspan></text></g><g transform="&#xA;&#9;        rotate(-46.930194679743444)&#xA;&#9;        translate(190,0)&#xA;&#9;        rotate(0)&#xA;&#9;      "><text x="0" y="0" text-anchor="middle" dominant-baseline="text-before-edge" transform="translate(0,-12)"><tspan x="11.030226891555273" y="0" dy="0" text-anchor="start" style="font-family: Arial, sans-serif; font-size: 10px; fill: black; font-weight: bold;">Bill Acquavella,Gagosian Gallery,Private collection,Lily Safra</tspan><tspan x="11.030226891555273" y="0" dy="12" text-anchor="start" style="font-family: Arial, sans-serif; font-size: 10px; fill: black; font-weight: normal;">http://upload.wikimedia.org/wikipedia/en/2/28/Grande_t%C3%AAte_mince_front_and_side_views.jpg,https://c1.staticflickr.com/5/4154/5043461038_8cd892bb15_z.jpg,http://artpulsemagazine.com/wp-content/uploads/2010/07/lot-8-giacometti-lhomme-qui-marche-i-a.gif</tspan></text></g><g transform="&#xA;&#9;        rotate(-37.93632675068567)&#xA;&#9;        translate(190,0)&#xA;&#9;        rotate(0)&#xA;&#9;      "><text x="0" y="0" text-anchor="middle" dominant-baseline="text-before-edge" transform="translate(0,-12)"><tspan x="10.222329678670935" y="0" dy="0" text-anchor="start" style="font-family: Arial, sans-serif; font-size: 10px; fill: black; font-weight: bold;">National Galleries of Scotland &amp; National Gallery, London,Getty Museum</tspan><tspan x="10.222329678670935" y="0" dy="12" text-anchor="start" style="font-family: Arial, sans-serif; font-size: 10px; fill: black; font-weight: normal;">http://www.nationalgallery.org.uk/upload/img/titian-diana-and-actaeon-NG6611-fm.jpg,http://upload.wikimedia.org/wikipedia/commons/thumb/1/1a/TitianDianaCallistoEdinburgh.jpg/95px-TitianDianaCallistoEdinburgh.jpg,http://upload.wikimedia.org/wikipedia/commons/thumb/a/ac/Titian_-_Marchese_del_Vasto.jpg/95px-Titian_-_Marchese_del_Vasto.jpg</tspan></text></g><g transform="&#xA;&#9;        rotate(-29.099055756044912)&#xA;&#9;        translate(190,0)&#xA;&#9;        rotate(0)&#xA;&#9;      "><text x="0" y="0" text-anchor="middle" dominant-baseline="text-before-edge" transform="translate(0,-12)"><tspan x="10.222329678670935" y="0" dy="0" text-anchor="start" style="font-family: Arial, sans-serif; font-size: 10px; fill: black; font-weight: bold;">Anonymous,Elaine Wynn, ex-wife of Steve Wynn,Roman Abramovich</tspan><tspan x="10.222329678670935" y="0" dy="12" text-anchor="start" style="font-family: Arial, sans-serif; font-size: 10px; fill: black; font-weight: normal;">http://fm.cnbc.com/applications/cnbc.com/resources/img/editorial/2014/05/13/101669179-Untitled-4.530x298.jpg?v=1400076313,http://292fc373eb1b8428f75b-7f75e5eb51943043279413a54aaa858a.r38.cf3.rackcdn.com/world_14_temp-1381742379-525bb72b-620x348.jpg,http://p8.storage.canalblog.com/85/37/119589/25633392.jpg</tspan></text></g><g transform="&#xA;&#9;        rotate(-20.26178476140413)&#xA;&#9;        translate(190,0)&#xA;&#9;        rotate(0)&#xA;&#9;      "><text x="0" y="0" text-anchor="middle" dominant-baseline="text-before-edge" transform="translate(0,-12)"><tspan x="10.222329678670935" y="0" dy="0" text-anchor="start" style="font-family: Arial, sans-serif; font-size: 10px; fill: black; font-weight: bold;">,Anonymous,Alastair Bradley Martin</tspan><tspan x="10.222329678670935" y="0" dy="12" text-anchor="start" style="font-family: Arial, sans-serif; font-size: 10px; fill: black; font-weight: normal;">http://www.canphoto.net/wordpress/wp-content/uploads/2012/05/jeff-wall-dead-troops-talk.jpg,http://www.artquid.com/files/image/artemis_and_the_stag.jpg,http://upload.wikimedia.org/wikipedia/commons/f/ff/Guennol_Lioness.jpg</tspan></text></g><g transform="&#xA;&#9;        rotate(-11.610266661891018)&#xA;&#9;        translate(190,0)&#xA;&#9;        rotate(0)&#xA;&#9;      "><text x="0" y="0" text-anchor="middle" dominant-baseline="text-before-edge" transform="translate(0,-12)"><tspan x="9.264014327112209" y="0" dy="0" text-anchor="start" style="font-family: Arial, sans-serif; font-size: 10px; fill: black; font-weight: bold;">Anonymous,Ronald Lauder, Neue Galerie</tspan><tspan x="9.264014327112209" y="0" dy="12" text-anchor="start" style="font-family: Arial, sans-serif; font-size: 10px; fill: black; font-weight: normal;">http://upload.wikimedia.org/wikipedia/commons/thumb/3/33/Gustav_Klimt_047.jpg/95px-Gustav_Klimt_047.jpg,http://upload.wikimedia.org/wikipedia/commons/thumb/8/84/Gustav_Klimt_046.jpg/95px-Gustav_Klimt_046.jpg</tspan></text></g><g transform="&#xA;&#9;        rotate(-3.1445014575055836)&#xA;&#9;        translate(190,0)&#xA;&#9;        rotate(0)&#xA;&#9;      "><text x="0" y="0" text-anchor="middle" dominant-baseline="text-before-edge" transform="translate(0,-12)"><tspan x="9.264014327112209" y="0" dy="0" text-anchor="start" style="font-family: Arial, sans-serif; font-size: 10px; fill: black; font-weight: bold;">Anonymous</tspan><tspan x="9.264014327112209" y="0" dy="12" text-anchor="start" style="font-family: Arial, sans-serif; font-size: 10px; fill: black; font-weight: normal;">http://artscash.com/images/paintings/Barnett-Newman-Anna's-Light-1968.jpg,https://upload.wikimedia.org/wikipedia/en/7/79/Black_Fire_I.jpg</tspan></text></g><g transform="&#xA;&#9;        rotate(5.3212637468798505)&#xA;&#9;        translate(190,0)&#xA;&#9;        rotate(0)&#xA;&#9;      "><text x="0" y="0" text-anchor="middle" dominant-baseline="text-before-edge" transform="translate(0,-12)"><tspan x="9.264014327112209" y="0" dy="0" text-anchor="start" style="font-family: Arial, sans-serif; font-size: 10px; fill: black; font-weight: bold;">Kenneth C. Griffin,Steven A. Cohen</tspan><tspan x="9.264014327112209" y="0" dy="12" text-anchor="start" style="font-family: Arial, sans-serif; font-size: 10px; fill: black; font-weight: normal;">https://live.staticflickr.com/3123/3159792607_d867e25e18_b.jpg,https://upload.wikimedia.org/wikipedia/en/6/6b/Jasper_Johns%27s_%27Flag%27%2C_Encaustic%2C_oil_and_collage_on_fabric_mounted_on_plywood%2C1954-55.jpg</tspan></text></g><g transform="&#xA;&#9;        rotate(13.787028951265299)&#xA;&#9;        translate(190,0)&#xA;&#9;        rotate(0)&#xA;&#9;      "><text x="0" y="0" text-anchor="middle" dominant-baseline="text-before-edge" transform="translate(0,-12)"><tspan x="9.264014327112209" y="0" dy="0" text-anchor="start" style="font-family: Arial, sans-serif; font-size: 10px; fill: black; font-weight: bold;">Anonymous,Private collection</tspan><tspan x="9.264014327112209" y="0" dy="12" text-anchor="start" style="font-family: Arial, sans-serif; font-size: 10px; fill: black; font-weight: normal;">http://upload.wikimedia.org/wikipedia/commons/thumb/c/cc/Amedeo_Modigliani_063.jpg/95px-Amedeo_Modigliani_063.jpg,http://4.bp.blogspot.com/_E-uykHk4AyM/TBh7oAfF2KI/AAAAAAAAA2Y/5j5r4yMJe1c/s1600/modigliani.jpg</tspan></text></g><g transform="&#xA;&#9;        rotate(22.252794155650733)&#xA;&#9;        translate(190,0)&#xA;&#9;        rotate(0)&#xA;&#9;      "><text x="0" y="0" text-anchor="middle" dominant-baseline="text-before-edge" transform="translate(0,-12)"><tspan x="9.264014327112209" y="0" dy="0" text-anchor="start" style="font-family: Arial, sans-serif; font-size: 10px; fill: black; font-weight: bold;">Steven A. Cohen</tspan><tspan x="9.264014327112209" y="0" dy="12" text-anchor="start" style="font-family: Arial, sans-serif; font-size: 10px; fill: black; font-weight: normal;">http://webneel.com/daily/sites/default/files/images/daily/10-2013/27-most-expensive-painting-police-gazette.jpg,http://upload.wikimedia.org/wikipedia/en/e/e7/Woman3.jpg</tspan></text></g><g transform="&#xA;&#9;        rotate(30.718559360036167)&#xA;&#9;        translate(190,0)&#xA;&#9;        rotate(0)&#xA;&#9;      "><text x="0" y="0" text-anchor="middle" dominant-baseline="text-before-edge" transform="translate(0,-12)"><tspan x="9.264014327112209" y="0" dy="0" text-anchor="start" style="font-family: Arial, sans-serif; font-size: 10px; fill: black; font-weight: bold;">Anonymous,State of Qatar</tspan><tspan x="9.264014327112209" y="0" dy="12" text-anchor="start" style="font-family: Arial, sans-serif; font-size: 10px; fill: black; font-weight: normal;">http://upload.wikimedia.org/wikipedia/en/thumb/8/82/Paulcezanneart.jpg/95px-Paulcezanneart.jpg,http://upload.wikimedia.org/wikipedia/commons/thumb/5/58/Card_Players-Paul_Cezanne.jpg/95px-Card_Players-Paul_Cezanne.jpg</tspan></text></g><g transform="&#xA;&#9;        rotate(39.18432456442159)&#xA;&#9;        translate(190,0)&#xA;&#9;        rotate(0)&#xA;&#9;      "><text x="0" y="0" text-anchor="middle" dominant-baseline="text-before-edge" transform="translate(0,-6)"><tspan x="9.264014327112209" y="0" dy="0" text-anchor="start" style="font-family: Arial, sans-serif; font-size: 10px; fill: black; font-weight: bold;"/><tspan x="9.264014327112209" y="0" dy="12" text-anchor="start" style="font-family: Arial, sans-serif; font-size: 10px; fill: black; font-weight: normal;">http://media-cache-ak0.pinimg.com/originals/01/2e/78/012e786d529a1055379736c345204e2a.jpg,http://upload.wikimedia.org/wikipedia/commons/6/61/Edward_Steichen_%28American_-_Moonlight-_The_Pond_-_Google_Art_Project.jpg</tspan></text></g><g transform="&#xA;&#9;        rotate(47.65008976880705)&#xA;&#9;        translate(190,0)&#xA;&#9;        rotate(0)&#xA;&#9;      "><text x="0" y="0" text-anchor="middle" dominant-baseline="text-before-edge" transform="translate(0,-6)"><tspan x="9.264014327112209" y="0" dy="0" text-anchor="start" style="font-family: Arial, sans-serif; font-size: 10px; fill: black; font-weight: bold;"/><tspan x="9.264014327112209" y="0" dy="12" text-anchor="start" style="font-family: Arial, sans-serif; font-size: 10px; fill: black; font-weight: normal;">http://upload.wikimedia.org/wikipedia/commons/4/45/IMG_3432.JPG,http://www.metmuseum.org/toah/images/h2/h2_2000.272.jpg</tspan></text></g><g transform="&#xA;&#9;        rotate(56.115854973192484)&#xA;&#9;        translate(190,0)&#xA;&#9;        rotate(0)&#xA;&#9;      "><text x="0" y="0" text-anchor="middle" dominant-baseline="text-before-edge" transform="translate(0,-6)"><tspan x="9.264014327112209" y="0" dy="0" text-anchor="start" style="font-family: Arial, sans-serif; font-size: 10px; fill: black; font-weight: bold;"/><tspan x="9.264014327112209" y="0" dy="12" text-anchor="start" style="font-family: Arial, sans-serif; font-size: 10px; fill: black; font-weight: normal;">http://1.bp.blogspot.com/-oRdG_DQfNnY/Tj-li9MF0SI/AAAAAAAAAyc/EzXaDo4L2iA/s1600/Georgia-OKeeffe-Nude-Alfred-Stieglitz.jpg,http://www.christies.com/lotfinderimages/d53042/d5304289l.jpg</tspan></text></g><g transform="&#xA;&#9;        rotate(64.58162017757792)&#xA;&#9;        translate(190,0)&#xA;&#9;        rotate(0)&#xA;&#9;      "><text x="0" y="0" text-anchor="middle" dominant-baseline="text-before-edge" transform="translate(0,-6)"><tspan x="9.264014327112209" y="0" dy="0" text-anchor="start" style="font-family: Arial, sans-serif; font-size: 10px; fill: black; font-weight: bold;"/><tspan x="9.264014327112209" y="0" dy="12" text-anchor="start" style="font-family: Arial, sans-serif; font-size: 10px; fill: black; font-weight: normal;">http://3.bp.blogspot.com/_COhqqZM8RS0/TF9OSsAb9rI/AAAAAAAAAkw/sZPLGvMg0lE/s1600/sothebys_edward_weston_nude.jpg,http://www.lik.com/media/catalog/product/cache/1/image/9df78eab33525d08d6e5fb8d27136e95/w/g/wg000_one_1.jpg</tspan></text></g><g transform="&#xA;&#9;        rotate(73.04738538196338)&#xA;&#9;        translate(190,0)&#xA;&#9;        rotate(0)&#xA;&#9;      "><text x="0" y="0" text-anchor="middle" dominant-baseline="text-before-edge" transform="translate(0,-6)"><tspan x="9.264014327112209" y="0" dy="0" text-anchor="start" style="font-family: Arial, sans-serif; font-size: 10px; fill: black; font-weight: bold;"/><tspan x="9.264014327112209" y="0" dy="12" text-anchor="start" style="font-family: Arial, sans-serif; font-size: 10px; fill: black; font-weight: normal;">http://upload.wikimedia.org/wikipedia/en/6/65/Cindy_Sherman%27s_photo_Untitled_96.jpg,</tspan></text></g><g transform="&#xA;&#9;        rotate(81.51315058634881)&#xA;&#9;        translate(190,0)&#xA;&#9;        rotate(0)&#xA;&#9;      "><text x="0" y="0" text-anchor="middle" dominant-baseline="text-before-edge" transform="translate(0,-12)"><tspan x="9.264014327112209" y="0" dy="0" text-anchor="start" style="font-family: Arial, sans-serif; font-size: 10px; fill: black; font-weight: bold;">Private collection</tspan><tspan x="9.264014327112209" y="0" dy="12" text-anchor="start" style="font-family: Arial, sans-serif; font-size: 10px; fill: black; font-weight: normal;">http://annex.guggenheim.org/collections/media/full/76.2553.51_ph_web.jpg,http://uploads5.wikiart.org/images/constantin-brancusi/madame-lr-portrait-de-mme-lr-1918.jpg!Blog.jpg</tspan></text></g><g transform="&#xA;&#9;        rotate(89.73683790472518)&#xA;&#9;        translate(190,0)&#xA;&#9;        rotate(0)&#xA;&#9;      "><text x="0" y="0" text-anchor="middle" dominant-baseline="text-before-edge" transform="translate(0,-12)"><tspan x="8.015113445777637" y="0" dy="0" text-anchor="start" style="font-family: Arial, sans-serif; font-size: 10px; fill: black; font-weight: bold;">Ryoei Saito</tspan><tspan x="8.015113445777637" y="0" dy="12" text-anchor="start" style="font-family: Arial, sans-serif; font-size: 10px; fill: black; font-weight: normal;">https://upload.wikimedia.org/wikipedia/commons/2/21/Pierre-Auguste_Renoir%2C_Le_Moulin_de_la_Galette.jpg</tspan></text></g><g transform="&#xA;&#9;        rotate(97.71844733709244)&#xA;&#9;        translate(190,0)&#xA;&#9;        rotate(180)&#xA;&#9;      "><text x="0" y="0" text-anchor="middle" dominant-baseline="text-before-edge" transform="translate(0,-12)"><tspan x="-8.015113445777637" y="0" dy="0" text-anchor="end" style="font-family: Arial, sans-serif; font-size: 10px; fill: black; font-weight: bold;">Reinhold Würth</tspan><tspan x="-8.015113445777637" y="0" dy="12" text-anchor="end" style="font-family: Arial, sans-serif; font-size: 10px; fill: black; font-weight: normal;">http://upload.wikimedia.org/wikipedia/commons/thumb/4/4e/Darmstadtmadonna.jpg/95px-Darmstadtmadonna.jpg</tspan></text></g><g transform="&#xA;&#9;        rotate(105.70005676945968)&#xA;&#9;        translate(190,0)&#xA;&#9;        rotate(180)&#xA;&#9;      "><text x="0" y="0" text-anchor="middle" dominant-baseline="text-before-edge" transform="translate(0,-12)"><tspan x="-8.015113445777637" y="0" dy="0" text-anchor="end" style="font-family: Arial, sans-serif; font-size: 10px; fill: black; font-weight: bold;">Hunan TV &amp; Broadcast Intermediary Co</tspan><tspan x="-8.015113445777637" y="0" dy="12" text-anchor="end" style="font-family: Arial, sans-serif; font-size: 10px; fill: black; font-weight: normal;">https://live.staticflickr.com/3666/9398344870_ac3b14818e_z.jpg</tspan></text></g><g transform="&#xA;&#9;        rotate(113.68166620182694)&#xA;&#9;        translate(190,0)&#xA;&#9;        rotate(180)&#xA;&#9;      "><text x="0" y="0" text-anchor="middle" dominant-baseline="text-before-edge" transform="translate(0,-12)"><tspan x="-8.015113445777637" y="0" dy="0" text-anchor="end" style="font-family: Arial, sans-serif; font-size: 10px; fill: black; font-weight: bold;">Anonymous</tspan><tspan x="-8.015113445777637" y="0" dy="12" text-anchor="end" style="font-family: Arial, sans-serif; font-size: 10px; fill: black; font-weight: normal;">http://upload.wikimedia.org/wikipedia/commons/thumb/f/fd/Le_bassin_aux_nymph%C3%A9as_-_Claude_Monet.jpg/95px-Le_bassin_aux_nymph%C3%A9as_-_Claude_Monet.jpg</tspan></text></g><g transform="&#xA;&#9;        rotate(121.66327563419424)&#xA;&#9;        translate(190,0)&#xA;&#9;        rotate(180)&#xA;&#9;      "><text x="0" y="0" text-anchor="middle" dominant-baseline="text-before-edge" transform="translate(0,-12)"><tspan x="-8.015113445777637" y="0" dy="0" text-anchor="end" style="font-family: Arial, sans-serif; font-size: 10px; fill: black; font-weight: bold;">Kenneth Thomson</tspan><tspan x="-8.015113445777637" y="0" dy="12" text-anchor="end" style="font-family: Arial, sans-serif; font-size: 10px; fill: black; font-weight: normal;">http://upload.wikimedia.org/wikipedia/commons/thumb/7/7c/0_Le_Massacre_des_Innocents_d%27apr%C3%A8s_P.P._Rubens_-_Mus%C3%A9es_royaux_des_beaux-arts_de_Belgique_%282%29.JPG/95px-0_Le_Massacre_des_Innocents_d%27apr%C3%A8s_P.P._Rubens_-_Mus%C3%A9es_royaux_des_beaux-arts_de_Belgique_%282%29.JPG</tspan></text></g><g transform="&#xA;&#9;        rotate(129.6448850665615)&#xA;&#9;        translate(190,0)&#xA;&#9;        rotate(180)&#xA;&#9;      "><text x="0" y="0" text-anchor="middle" dominant-baseline="text-before-edge" transform="translate(0,-12)"><tspan x="-8.015113445777637" y="0" dy="0" text-anchor="end" style="font-family: Arial, sans-serif; font-size: 10px; fill: black; font-weight: bold;">David Martinez</tspan><tspan x="-8.015113445777637" y="0" dy="12" text-anchor="end" style="font-family: Arial, sans-serif; font-size: 10px; fill: black; font-weight: normal;">http://img.zanda.com/item/93060710000002/1024x768/No_5_1948.jpg</tspan></text></g><g transform="&#xA;&#9;        rotate(137.62649449892874)&#xA;&#9;        translate(190,0)&#xA;&#9;        rotate(180)&#xA;&#9;      "><text x="0" y="0" text-anchor="middle" dominant-baseline="text-before-edge" transform="translate(0,-12)"><tspan x="-8.015113445777637" y="0" dy="0" text-anchor="end" style="font-family: Arial, sans-serif; font-size: 10px; fill: black; font-weight: bold;">Getty Museum</tspan><tspan x="-8.015113445777637" y="0" dy="12" text-anchor="end" style="font-family: Arial, sans-serif; font-size: 10px; fill: black; font-weight: normal;">http://upload.wikimedia.org/wikipedia/commons/thumb/1/13/Pontormo_%28Jacopo_Carucci%29_%28Italian%2C_Florentine%29_-_Portrait_of_a_Halberdier_%28Francesco_Guardi%3F%29_-_Google_Art_Project.jpg/95px-Pontormo_%28Jacopo_Carucci%29_%28Italian%2C_Florentine%29_-_Portrait_of_a_Halberdier_%28Francesco_Guardi%3F%29_-_Google_Art_Project.jpg</tspan></text></g><g transform="&#xA;&#9;        rotate(145.60810393129606)&#xA;&#9;        translate(190,0)&#xA;&#9;        rotate(180)&#xA;&#9;      "><text x="0" y="0" text-anchor="middle" dominant-baseline="text-before-edge" transform="translate(0,-12)"><tspan x="-8.015113445777637" y="0" dy="0" text-anchor="end" style="font-family: Arial, sans-serif; font-size: 10px; fill: black; font-weight: bold;">Anonymous</tspan><tspan x="-8.015113445777637" y="0" dy="12" text-anchor="end" style="font-family: Arial, sans-serif; font-size: 10px; fill: black; font-weight: normal;">http://upload.wikimedia.org/wikipedia/commons/thumb/1/1f/Leonardo_da_Vinci_or_Boltraffio_%28attrib%29_Salvator_Mundi_circa_1500.jpg/95px-Leonardo_da_Vinci_or_Boltraffio_%28attrib%29_Salvator_Mundi_circa_1500.jpg</tspan></text></g><g transform="&#xA;&#9;        rotate(153.5897133636633)&#xA;&#9;        translate(190,0)&#xA;&#9;        rotate(180)&#xA;&#9;      "><text x="0" y="0" text-anchor="middle" dominant-baseline="text-before-edge" transform="translate(0,-6)"><tspan x="-8.015113445777637" y="0" dy="0" text-anchor="end" style="font-family: Arial, sans-serif; font-size: 10px; fill: black; font-weight: bold;"/><tspan x="-8.015113445777637" y="0" dy="12" text-anchor="end" style="font-family: Arial, sans-serif; font-size: 10px; fill: black; font-weight: normal;">http://upload.wikimedia.org/wikipedia/commons/thumb/1/13/Suprematist_Composition_-_Kazimir_Malevich.jpg/95px-Suprematist_Composition_-_Kazimir_Malevich.jpg</tspan></text></g><g transform="&#xA;&#9;        rotate(161.57132279603056)&#xA;&#9;        translate(190,0)&#xA;&#9;        rotate(180)&#xA;&#9;      "><text x="0" y="0" text-anchor="middle" dominant-baseline="text-before-edge" transform="translate(0,-12)"><tspan x="-8.015113445777637" y="0" dy="0" text-anchor="end" style="font-family: Arial, sans-serif; font-size: 10px; fill: black; font-weight: bold;">Philadelphia Museum of Art</tspan><tspan x="-8.015113445777637" y="0" dy="12" text-anchor="end" style="font-family: Arial, sans-serif; font-size: 10px; fill: black; font-weight: normal;">http://upload.wikimedia.org/wikipedia/commons/thumb/4/41/Thomas_Eakins%2C_American_-_Portrait_of_Dr._Samuel_D._Gross_%28The_Gross_Clinic%29_-_Google_Art_Project.jpg/95px-Thomas_Eakins%2C_American_-_Portrait_of_Dr._Samuel_D._Gross_%28The_Gross_Clinic%29_-_Google_Art_Project.jpg</tspan></text></g><g transform="&#xA;&#9;        rotate(169.55293222839788)&#xA;&#9;        translate(190,0)&#xA;&#9;        rotate(180)&#xA;&#9;      "><text x="0" y="0" text-anchor="middle" dominant-baseline="text-before-edge" transform="translate(0,-12)"><tspan x="-8.015113445777637" y="0" dy="0" text-anchor="end" style="font-family: Arial, sans-serif; font-size: 10px; fill: black; font-weight: bold;">Leon Black</tspan><tspan x="-8.015113445777637" y="0" dy="12" text-anchor="end" style="font-family: Arial, sans-serif; font-size: 10px; fill: black; font-weight: normal;">http://upload.wikimedia.org/wikipedia/en/thumb/f/f7/The_Scream_Pastel.jpg/95px-The_Scream_Pastel.jpg</tspan></text></g><g transform="&#xA;&#9;        rotate(177.53454166076511)&#xA;&#9;        translate(190,0)&#xA;&#9;        rotate(180)&#xA;&#9;      "><text x="0" y="0" text-anchor="middle" dominant-baseline="text-before-edge" transform="translate(0,-12)"><tspan x="-8.015113445777637" y="0" dy="0" text-anchor="end" style="font-family: Arial, sans-serif; font-size: 10px; fill: black; font-weight: bold;">Anonymous</tspan><tspan x="-8.015113445777637" y="0" dy="12" text-anchor="end" style="font-family: Arial, sans-serif; font-size: 10px; fill: black; font-weight: normal;">http://upload.wikimedia.org/wikipedia/en/b/bc/99_cent_II%2C_diptychon_-_Photo_courtesy_of_Sotheby%27s.jpg</tspan></text></g><g transform="&#xA;&#9;        rotate(185.51615109313235)&#xA;&#9;        translate(190,0)&#xA;&#9;        rotate(180)&#xA;&#9;      "><text x="0" y="0" text-anchor="middle" dominant-baseline="text-before-edge" transform="translate(0,-6)"><tspan x="-8.015113445777637" y="0" dy="0" text-anchor="end" style="font-family: Arial, sans-serif; font-size: 10px; fill: black; font-weight: bold;"/><tspan x="-8.015113445777637" y="0" dy="12" text-anchor="end" style="font-family: Arial, sans-serif; font-size: 10px; fill: black; font-weight: normal;">http://upload.wikimedia.org/wikipedia/commons/c/c2/Billy_the_Kid_corrected.jpg</tspan></text></g><g transform="&#xA;&#9;        rotate(193.4977605254997)&#xA;&#9;        translate(190,0)&#xA;&#9;        rotate(180)&#xA;&#9;      "><text x="0" y="0" text-anchor="middle" dominant-baseline="text-before-edge" transform="translate(0,-6)"><tspan x="-8.015113445777637" y="0" dy="0" text-anchor="end" style="font-family: Arial, sans-serif; font-size: 10px; fill: black; font-weight: bold;"/><tspan x="-8.015113445777637" y="0" dy="12" text-anchor="end" style="font-family: Arial, sans-serif; font-size: 10px; fill: black; font-weight: normal;">http://mikophoto.net/wordpress/wp-content/uploads/2010/11/Georgia-OKeeffe-Hands-Alfred-Stieglitz.jpg</tspan></text></g><g transform="&#xA;&#9;        rotate(201.47936995786694)&#xA;&#9;        translate(190,0)&#xA;&#9;        rotate(180)&#xA;&#9;      "><text x="0" y="0" text-anchor="middle" dominant-baseline="text-before-edge" transform="translate(0,-6)"><tspan x="-8.015113445777637" y="0" dy="0" text-anchor="end" style="font-family: Arial, sans-serif; font-size: 10px; fill: black; font-weight: bold;"/><tspan x="-8.015113445777637" y="0" dy="12" text-anchor="end" style="font-family: Arial, sans-serif; font-size: 10px; fill: black; font-weight: normal;">http://upload.wikimedia.org/wikipedia/en/thumb/e/e3/Moonrise%2C_Hernandez%2C_New_Mexico.jpg/220px-Moonrise%2C_Hernandez%2C_New_Mexico.jpg</tspan></text></g><g transform="&#xA;&#9;        rotate(209.46097939023417)&#xA;&#9;        translate(190,0)&#xA;&#9;        rotate(180)&#xA;&#9;      "><text x="0" y="0" text-anchor="middle" dominant-baseline="text-before-edge" transform="translate(0,-6)"><tspan x="-8.015113445777637" y="0" dy="0" text-anchor="end" style="font-family: Arial, sans-serif; font-size: 10px; fill: black; font-weight: bold;"/><tspan x="-8.015113445777637" y="0" dy="12" text-anchor="end" style="font-family: Arial, sans-serif; font-size: 10px; fill: black; font-weight: normal;">http://upload.wikimedia.org/wikipedia/en/a/a4/Weston-nautilus.jpg</tspan></text></g><g transform="&#xA;&#9;        rotate(217.4425888226014)&#xA;&#9;        translate(190,0)&#xA;&#9;        rotate(180)&#xA;&#9;      "><text x="0" y="0" text-anchor="middle" dominant-baseline="text-before-edge" transform="translate(0,-6)"><tspan x="-8.015113445777637" y="0" dy="0" text-anchor="end" style="font-family: Arial, sans-serif; font-size: 10px; fill: black; font-weight: bold;"/><tspan x="-8.015113445777637" y="0" dy="12" text-anchor="end" style="font-family: Arial, sans-serif; font-size: 10px; fill: black; font-weight: normal;">http://upload.wikimedia.org/wikipedia/en/thumb/a/aa/Rhein_II.jpg/300px-Rhein_II.jpg</tspan></text></g><g transform="&#xA;&#9;        rotate(225.4241982549687)&#xA;&#9;        translate(190,0)&#xA;&#9;        rotate(180)&#xA;&#9;      "><text x="0" y="0" text-anchor="middle" dominant-baseline="text-before-edge" transform="translate(0,-6)"><tspan x="-8.015113445777637" y="0" dy="0" text-anchor="end" style="font-family: Arial, sans-serif; font-size: 10px; fill: black; font-weight: bold;"/><tspan x="-8.015113445777637" y="0" dy="12" text-anchor="end" style="font-family: Arial, sans-serif; font-size: 10px; fill: black; font-weight: normal;">http://upload.wikimedia.org/wikipedia/commons/e/e4/Tobolsk_Kremlin_by_Dmitry_Medvedev_BW.JPG</tspan></text></g><g transform="&#xA;&#9;        rotate(233.405807687336)&#xA;&#9;        translate(190,0)&#xA;&#9;        rotate(180)&#xA;&#9;      "><text x="0" y="0" text-anchor="middle" dominant-baseline="text-before-edge" transform="translate(0,-6)"><tspan x="-8.015113445777637" y="0" dy="0" text-anchor="end" style="font-family: Arial, sans-serif; font-size: 10px; fill: black; font-weight: bold;"/><tspan x="-8.015113445777637" y="0" dy="12" text-anchor="end" style="font-family: Arial, sans-serif; font-size: 10px; fill: black; font-weight: normal;">http://artblart.files.wordpress.com/2013/02/exhi014822_web.jpg</tspan></text></g><g transform="&#xA;&#9;        rotate(241.38741711970323)&#xA;&#9;        translate(190,0)&#xA;&#9;        rotate(180)&#xA;&#9;      "><text x="0" y="0" text-anchor="middle" dominant-baseline="text-before-edge" transform="translate(0,-6)"><tspan x="-8.015113445777637" y="0" dy="0" text-anchor="end" style="font-family: Arial, sans-serif; font-size: 10px; fill: black; font-weight: bold;"/><tspan x="-8.015113445777637" y="0" dy="12" text-anchor="end" style="font-family: Arial, sans-serif; font-size: 10px; fill: black; font-weight: normal;">http://upload.wikimedia.org/wikipedia/en/a/a9/Cindy-sherman-untitled-153.jpg</tspan></text></g><g transform="&#xA;&#9;        rotate(249.36902655207052)&#xA;&#9;        translate(190,0)&#xA;&#9;        rotate(180)&#xA;&#9;      "><text x="0" y="0" text-anchor="middle" dominant-baseline="text-before-edge" transform="translate(0,-12)"><tspan x="-8.015113445777637" y="0" dy="0" text-anchor="end" style="font-family: Arial, sans-serif; font-size: 10px; fill: black; font-weight: bold;">Private collection</tspan><tspan x="-8.015113445777637" y="0" dy="12" text-anchor="end" style="font-family: Arial, sans-serif; font-size: 10px; fill: black; font-weight: normal;">http://www.christies.com/sales/jeff-koons-balloon-dog-november-2013/images/overview/3-right.jpg</tspan></text></g><g transform="&#xA;&#9;        rotate(257.3506359844378)&#xA;&#9;        translate(190,0)&#xA;&#9;        rotate(180)&#xA;&#9;      "><text x="0" y="0" text-anchor="middle" dominant-baseline="text-before-edge" transform="translate(0,-12)"><tspan x="-8.015113445777637" y="0" dy="0" text-anchor="end" style="font-family: Arial, sans-serif; font-size: 10px; fill: black; font-weight: bold;">Private collection</tspan><tspan x="-8.015113445777637" y="0" dy="12" text-anchor="end" style="font-family: Arial, sans-serif; font-size: 10px; fill: black; font-weight: normal;">http://www.christies.com/lotfinderimages/d53694/henri_matisse_nu_de_dos_4_etat_d5369418h.jpg</tspan></text></g><g transform="&#xA;&#9;        rotate(265.33224541680505)&#xA;&#9;        translate(190,0)&#xA;&#9;        rotate(180)&#xA;&#9;      "><text x="0" y="0" text-anchor="middle" dominant-baseline="text-before-edge" transform="translate(0,-12)"><tspan x="-8.015113445777637" y="0" dy="0" text-anchor="end" style="font-family: Arial, sans-serif; font-size: 10px; fill: black; font-weight: bold;">Private collection</tspan><tspan x="-8.015113445777637" y="0" dy="12" text-anchor="end" style="font-family: Arial, sans-serif; font-size: 10px; fill: black; font-weight: normal;">http://www.christies.com/lotfinderimages/d55323/henry_moore_reclining_figure_festival_d5532370h.jpg</tspan></text></g></g></g></svg>